HIERARCHY
ROOT root
{
	OFFSET	0	13.1	24.9
	CHANNELS 6  Xposition Yposition Zposition Xrotation Yrotation Zrotation
	JOINT spine_1
	{
		OFFSET	0	9.99999	0
		CHANNELS 3  Xrotation Yrotation Zrotation
		JOINT spine_2
		{
			OFFSET	0	112	-10
			CHANNELS 3  Xrotation Yrotation Zrotation
			JOINT spine_3
			{
				OFFSET	0	206.5	19.3
				CHANNELS 3  Xrotation Yrotation Zrotation
				JOINT spine_4
				{
					OFFSET	0	110.4	14.6
					CHANNELS 3  Xrotation Yrotation Zrotation
					JOINT neck_1
					{
						OFFSET	0	71.8	-50.3
						CHANNELS 3  Xrotation Yrotation Zrotation
						JOINT neck_2
						{
							OFFSET	0	86.2	-25.8
							CHANNELS 3  Xrotation Yrotation Zrotation
							JOINT head_ee
							{
								OFFSET	0	179.8	-8.7
								CHANNELS 3  Xrotation Yrotation Zrotation
								End Site
								{
									OFFSET	1	0	0
								}
							}
						}
					}
					JOINT left_clavicle
					{
						OFFSET	-43.2	22.4	-70.8
						CHANNELS 3  Xrotation Yrotation Zrotation
						JOINT left_shoulder
						{
							OFFSET	-93.9	-5.79999	48.7
							CHANNELS 3  Xrotation Yrotation Zrotation
							JOINT left_elbow
							{
								OFFSET	-291.4	-30.8	15.2
								CHANNELS 3  Xrotation Yrotation Zrotation
								JOINT left_lowarm_twist
								{
									OFFSET	-110.7	-3.89999	13.6
									CHANNELS 3  Xrotation Yrotation Zrotation
									JOINT left_hand
									{
										OFFSET	-110.7	-3.89999	13.6
										CHANNELS 3  Xrotation Yrotation Zrotation
										JOINT left_ee
										{
											OFFSET	-80.8	-5.10001	12.1
											CHANNELS 3  Xrotation Yrotation Zrotation
											End Site
											{
												OFFSET	1	0	0
											}
										}
									}
								}
							}
						}
					}
					JOINT right_clavicle
					{
						OFFSET	43.2	22.4	-70.8
						CHANNELS 3  Xrotation Yrotation Zrotation
						JOINT right_shoulder
						{
							OFFSET	93.9	-5.79999	48.7
							CHANNELS 3  Xrotation Yrotation Zrotation
							JOINT right_elbow
							{
								OFFSET	291.4	-30.8	15.2
								CHANNELS 3  Xrotation Yrotation Zrotation
								JOINT right_lowarm_twist
								{
									OFFSET	110.7	-3.89999	13.6
									CHANNELS 3  Xrotation Yrotation Zrotation
									JOINT right_hand
									{
										OFFSET	110.7	-3.89999	13.6
										CHANNELS 3  Xrotation Yrotation Zrotation
										JOINT right_ee
										{
											OFFSET	80.8	-5.10001	12.1
											CHANNELS 3  Xrotation Yrotation Zrotation
											End Site
											{
												OFFSET	1	0	0
											}
										}
									}
								}
							}
						}
					}
				}
			}
		}
	}
	JOINT left_hip
	{
		OFFSET	-82.8	-127.5	0.300001
		CHANNELS 3  Xrotation Yrotation Zrotation
		JOINT left_knee
		{
			OFFSET	-28.2	-396.7	2.2
			CHANNELS 3  Xrotation Yrotation Zrotation
			JOINT left_ankle
			{
				OFFSET	-11.7	-411.3	35.4
				CHANNELS 3  Xrotation Yrotation Zrotation
				JOINT left_toes
				{
					OFFSET	0	-60	-88.6
					CHANNELS 3  Xrotation Yrotation Zrotation
					JOINT left_foot_ee
					{
						OFFSET	-22.5	-16.5	-42.2
						CHANNELS 3  Xrotation Yrotation Zrotation
						End Site
						{
							OFFSET	1	0	0
						}
					}
				}
			}
		}
	}
	JOINT right_hip
	{
		OFFSET	82.8	-127.5	0.300001
		CHANNELS 3  Xrotation Yrotation Zrotation
		JOINT right_knee
		{
			OFFSET	28.2	-396.7	2.2
			CHANNELS 3  Xrotation Yrotation Zrotation
			JOINT right_ankle
			{
				OFFSET	11.7	-411.3	35.4
				CHANNELS 3  Xrotation Yrotation Zrotation
				JOINT right_toes
				{
					OFFSET	0	-60	-88.6
					CHANNELS 3  Xrotation Yrotation Zrotation
					JOINT right_foot_ee
					{
						OFFSET	22.5	-16.5	-42.2
						CHANNELS 3  Xrotation Yrotation Zrotation
						End Site
						{
							OFFSET	1	0	0
						}
					}
				}
			}
		}
	}
}
MOTION
Frames: 10
Frame Time: 0.02
701.704557178 624.688 -1828.75156176 -32.7925860244 58.9447589212 45.7751490215 8.83023 -1.09542 -4.76919 8.84253 -0.790093 -4.82903 8.88449 -0.517401 -4.86573 8.85374 -1.2785 -4.7235 -23.6779 -10.8635 5.47333 -24.692 -23.3531 -0.422148 -0.0 0.0 -0.0 10.5231 13.848 19.323 -8.3344 29.6297 55.5157 0.26907 -7.59234 0.0178536 19.8798 0.266944 -2.51272 4.62038 15.7774 38.0456 -0.0 0.0 -0.0 0.455228 -23.8313 -3.3724 -42.6377 34.7478 -49.4999 0.793402 21.4561 -0.15032 -68.3127 6.3309 -5.28393 3.50735 28.6139 -10.2619 0.0 0.0 0.0 37.0337 -25.5705 -10.6995 -36.4237 -0.255059 5.49112 20.7683 3.55532 -2.83074 37.6848 -0.0 -0.0 -0.0 0.0 -0.0 30.762 -3.74497 -17.7488 -41.0593 0.53553 -6.14592 30.1772 32.2171 4.97175 38.9403 -0.0 -0.0 0.0 0.0 0.0 
700.593636261 624.688 -1826.14523187 -33.1923605591 59.3128729135 46.2409082496 8.83023 -1.09542 -4.76919 8.84253 -0.790093 -4.82903 8.88449 -0.517401 -4.86573 8.85374 -1.2785 -4.7235 -23.6779 -10.8635 5.47333 -24.692 -23.3531 -0.422148 -0.0 0.0 -0.0 10.5231 13.848 19.323 -8.3344 29.6297 55.5157 0.26907 -7.59234 0.0178536 19.8798 0.266944 -2.51272 4.62038 15.7774 38.0456 -0.0 0.0 -0.0 0.455228 -23.8313 -3.3724 -42.6377 34.7478 -49.4999 0.793402 21.4561 -0.15032 -68.3127 6.3309 -5.28393 3.50735 28.6139 -10.2619 0.0 0.0 0.0 37.0337 -25.5705 -10.6995 -36.4237 -0.255059 5.49112 20.7683 3.55532 -2.83074 37.6848 -0.0 -0.0 -0.0 0.0 -0.0 30.762 -3.74497 -17.7488 -41.0593 0.53553 -6.14592 30.1772 32.2171 4.97175 38.9403 -0.0 -0.0 0.0 0.0 0.0 
700.079779297 624.688 -1824.92062028 -33.3832738373 59.4848430876 46.4627113519 8.83023 -1.09542 -4.76919 8.84253 -0.790093 -4.82903 8.88449 -0.517401 -4.86573 8.85374 -1.2785 -4.7235 -23.6779 -10.8635 5.47333 -24.692 -23.3531 -0.422148 -0.0 0.0 -0.0 10.5231 13.848 19.323 -8.3344 29.6297 55.5157 0.26907 -7.59234 0.0178536 19.8798 0.266944 -2.51272 4.62038 15.7774 38.0456 -0.0 0.0 -0.0 0.455228 -23.8313 -3.3724 -42.6377 34.7478 -49.4999 0.793402 21.4561 -0.15032 -68.3127 6.3309 -5.28393 3.50735 28.6139 -10.2619 0.0 0.0 0.0 37.0337 -25.5705 -10.6995 -36.4237 -0.255059 5.49112 20.7683 3.55532 -2.83074 37.6848 -0.0 -0.0 -0.0 0.0 -0.0 30.762 -3.74497 -17.7488 -41.0593 0.53553 -6.14592 30.1772 32.2171 4.97175 38.9403 -0.0 -0.0 0.0 0.0 0.0 
636.883162329 629.119 -1765.39444909 -46.247844169 65.6787215317 61.5465730646 8.92088 -1.46848 -5.26491 8.93558 -1.13098 -5.34736 9.01072 -0.842248 -5.40022 8.97398 -1.6834 -5.20034 -22.9567 -9.48381 6.39982 -23.6948 -21.1974 1.31564 -0.0 0.0 -0.0 10.6077 9.27844 20.0889 -17.509 34.7286 55.8269 0.194523 -5.50422 0.00935083 40.465 -0.373671 -5.0497 6.5267 6.73251 53.2353 -0.0 0.0 -0.0 0.859803 -23.5081 -3.89481 -50.6549 42.3556 -43.4551 0.388672 10.8984 -0.0370771 -69.7 6.50775 -5.29946 3.78455 27.598 -12.6142 0.0 0.0 0.0 30.4443 7.91504 -17.8608 -8.99287 0.264502 1.35337 20.463 -18.4869 -3.0893 31.4667 -0.0 -0.0 -0.0 0.0 -0.0 44.6232 -2.41664 -19.3323 -36.6504 0.267537 -5.52365 25.951 14.6391 3.68849 39.7044 -0.0 -0.0 0.0 0.0 0.0 
631.085334645 628.269 -1762.03431941 -47.5408567963 64.1639506169 62.8254034493 9.36897 -1.57223 -5.4376 9.38459 -1.22358 -5.52625 9.46811 -0.970349 -5.57615 9.42944 -1.83757 -5.35399 -23.5713 -10.8463 5.53152 -24.5766 -23.3571 -0.337678 -0.0 0.0 -0.0 10.9573 5.31434 21.2108 -19.2759 38.017 58.4278 0.194183 -5.49466 0.00931821 47.5285 -0.79761 -5.84725 7.00395 6.23466 58.8175 -0.0 0.0 -0.0 1.15406 -23.1665 -4.27175 -52.56 44.0698 -41.4181 0.398447 11.1657 -0.0389476 -70.5216 6.61261 -5.30663 3.98824 26.7705 -14.4116 0.0 0.0 0.0 31.02 17.2684 -19.3396 -1.81546 0.0704824 0.269684 25.7824 -20.8117 -3.85024 28.0266 -0.0 -0.0 -0.0 0.0 -0.0 46.9248 -0.429199 -18.9132 -34.3344 0.146204 -5.18917 30.5926 5.6198 4.03429 40.0456 -0.0 -0.0 0.0 0.0 0.0 
618.565903442 628.95 -1770.75361145 -44.9984100704 62.8235988249 60.274161218 9.62798 -1.6316 -5.56537 9.6443 -1.27474 -5.65751 9.7328 -1.04228 -5.70477 9.69259 -1.92883 -5.46974 -24.0786 -10.8896 7.76981 -25.1403 -24.3598 1.60645 -0.0 0.0 -0.0 10.8359 0.515527 21.3605 -23.8726 42.0631 63.7343 0.195699 -5.53729 0.00946388 53.9427 -1.2653 -6.52197 7.61163 7.5522 69.2858 -0.0 0.0 -0.0 0.862042 -23.1374 -3.86675 -54.3929 45.4987 -40.0905 0.534983 14.8432 -0.0696876 -71.8551 6.78295 -5.31505 4.15057 25.0686 -16.4562 0.0 0.0 0.0 31.6702 23.5368 -19.6349 1.96712 -0.085989 -0.289589 30.2133 -22.4682 -4.44969 24.5434 -0.0 -0.0 -0.0 0.0 -0.0 46.8543 1.26872 -18.9557 -31.509 0.0166851 -4.77504 33.1841 -5.05828 4.2191 40.0867 -0.0 -0.0 0.0 0.0 0.0 
619.338592281 628.95 -1774.37470754 -44.330980448 62.4742916939 59.5227332193 9.62798 -1.6316 -5.56537 9.6443 -1.27474 -5.65751 9.7328 -1.04228 -5.70477 9.69259 -1.92883 -5.46974 -24.0786 -10.8896 7.76981 -25.1403 -24.3598 1.60645 -0.0 0.0 -0.0 10.8359 0.515527 21.3605 -23.8726 42.0631 63.7343 0.195699 -5.53729 0.00946388 53.9427 -1.2653 -6.52197 7.61163 7.5522 69.2858 -0.0 0.0 -0.0 0.862042 -23.1374 -3.86675 -54.3929 45.4987 -40.0905 0.534983 14.8432 -0.0696876 -71.8551 6.78295 -5.31505 4.15057 25.0686 -16.4562 0.0 0.0 0.0 31.6702 23.5368 -19.6349 1.96712 -0.085989 -0.289589 30.2133 -22.4682 -4.44969 24.5434 -0.0 -0.0 -0.0 0.0 -0.0 46.8543 1.26872 -18.9557 -31.509 0.0166851 -4.77504 33.1841 -5.05828 4.2191 40.0867 -0.0 -0.0 0.0 0.0 0.0 
619.523832365 628.95 -1775.22085833 -44.1774003592 62.3920000827 59.3494845218 9.62798 -1.6316 -5.56537 9.6443 -1.27474 -5.65751 9.7328 -1.04228 -5.70477 9.69259 -1.92883 -5.46974 -24.0786 -10.8896 7.76981 -25.1403 -24.3598 1.60645 -0.0 0.0 -0.0 10.8359 0.515527 21.3605 -23.8726 42.0631 63.7343 0.195699 -5.53729 0.00946388 53.9427 -1.2653 -6.52197 7.61163 7.5522 69.2858 -0.0 0.0 -0.0 0.862042 -23.1374 -3.86675 -54.3929 45.4987 -40.0905 0.534983 14.8432 -0.0696876 -71.8551 6.78295 -5.31505 4.15057 25.0686 -16.4562 0.0 0.0 0.0 31.6702 23.5368 -19.6349 1.96712 -0.085989 -0.289589 30.2133 -22.4682 -4.44969 24.5434 -0.0 -0.0 -0.0 0.0 -0.0 46.8543 1.26872 -18.9557 -31.509 0.0166851 -4.77504 33.1841 -5.05828 4.2191 40.0867 -0.0 -0.0 0.0 0.0 0.0 
619.813083684 628.95 -1776.5261747 -43.942223322 62.2645620991 59.0839349474 9.62798 -1.6316 -5.56537 9.6443 -1.27474 -5.65751 9.7328 -1.04228 -5.70477 9.69259 -1.92883 -5.46974 -24.0786 -10.8896 7.76981 -25.1403 -24.3598 1.60645 -0.0 0.0 -0.0 10.8359 0.515527 21.3605 -23.8726 42.0631 63.7343 0.195699 -5.53729 0.00946388 53.9427 -1.2653 -6.52197 7.61163 7.5522 69.2858 -0.0 0.0 -0.0 0.862042 -23.1374 -3.86675 -54.3929 45.4987 -40.0905 0.534983 14.8432 -0.0696876 -71.8551 6.78295 -5.31505 4.15057 25.0686 -16.4562 0.0 0.0 0.0 31.6702 23.5368 -19.6349 1.96712 -0.085989 -0.289589 30.2133 -22.4682 -4.44969 24.5434 -0.0 -0.0 -0.0 0.0 -0.0 46.8543 1.26872 -18.9557 -31.509 0.0166851 -4.77504 33.1841 -5.05828 4.2191 40.0867 -0.0 -0.0 0.0 0.0 0.0 
620.213643591 628.95 -1778.30301883 -43.6254596152 62.0901394421 58.7257662977 9.62798 -1.6316 -5.56537 9.6443 -1.27474 -5.65751 9.7328 -1.04228 -5.70477 9.69259 -1.92883 -5.46974 -24.0786 -10.8896 7.76981 -25.1403 -24.3598 1.60645 -0.0 0.0 -0.0 10.8359 0.515527 21.3605 -23.8726 42.0631 63.7343 0.195699 -5.53729 0.00946388 53.9427 -1.2653 -6.52197 7.61163 7.5522 69.2858 -0.0 0.0 -0.0 0.862042 -23.1374 -3.86675 -54.3929 45.4987 -40.0905 0.534983 14.8432 -0.0696876 -71.8551 6.78295 -5.31505 4.15057 25.0686 -16.4562 0.0 0.0 0.0 31.6702 23.5368 -19.6349 1.96712 -0.085989 -0.289589 30.2133 -22.4682 -4.44969 24.5434 -0.0 -0.0 -0.0 0.0 -0.0 46.8543 1.26872 -18.9557 -31.509 0.0166851 -4.77504 33.1841 -5.05828 4.2191 40.0867 -0.0 -0.0 0.0 0.0 0.0 
